<?xml version="1.0" encoding="utf-8"?>
<!-- Generator: Adobe Illustrator 19.0.0, SVG Export Plug-In . SVG Version: 6.00 Build 0)  -->
<svg version="1.1" id="Layer_1" xmlns="http://www.w3.org/2000/svg" xmlns:xlink="http://www.w3.org/1999/xlink" x="0px" y="0px"
	 viewBox="0 0 612 792" style="enable-background:new 0 0 612 792;" xml:space="preserve">
<style type="text/css">
	.st0{fill:#00A8AA;}
</style>
<g>
	<path class="st0" d="M313.9,470.5H313c-0.4-3-2.7-5.3-5.6-5.7v-0.8c0-0.6-0.3-1-0.8-1s-0.8,0.5-0.8,1v0.7c-3,0.3-5.4,2.7-5.8,5.7
		h-0.7c-0.6,0-1,0.4-1,0.8c0,0.4,0.5,0.8,1,0.8h0.7c0.4,3,2.8,5.4,5.8,5.7v0.7c0,0.6,0.3,1,0.8,1s0.8-0.5,0.8-1v-0.8
		c3-0.4,5.3-2.7,5.6-5.7h0.8c0.6,0,1-0.4,1-0.8C314.9,470.9,314.4,470.5,313.9,470.5z M311.5,470.5h-1.6c-0.3-1.2-1.3-2.2-2.5-2.5
		v-1.6C309.5,466.8,311.2,468.4,311.5,470.5z M306.5,473.2c-1,0-1.9-0.9-1.9-1.9c0-1,0.9-1.9,1.9-1.9c1,0,1.9,0.9,1.9,1.9
		C308.4,472.4,307.6,473.2,306.5,473.2z M305.9,466.4v1.6c-1.3,0.3-2.4,1.3-2.7,2.6h-1.5C302,468.4,303.7,466.7,305.9,466.4z
		 M301.7,472.1h1.5c0.3,1.3,1.4,2.4,2.7,2.6v1.5C303.7,475.9,302,474.2,301.7,472.1z M307.4,476.2v-1.5c1.3-0.3,2.2-1.3,2.5-2.6h1.6
		C311.2,474.2,309.5,475.8,307.4,476.2z"/>
</g>
</svg>
