<?xml version="1.0" encoding="utf-8"?>
<!-- Generator: Adobe Illustrator 19.0.0, SVG Export Plug-In . SVG Version: 6.00 Build 0)  -->
<svg version="1.1" id="Layer_1" xmlns="http://www.w3.org/2000/svg" xmlns:xlink="http://www.w3.org/1999/xlink" x="0px" y="0px"
	 viewBox="0 0 612 792" style="enable-background:new 0 0 612 792;" xml:space="preserve">
<style type="text/css">
	.st0{fill:#00A8AA;}
	.st1{fill:#FFFFFF;}
</style>
<path class="st0" d="M316,408.5h-19.3c-1.6,0-2.8-1.3-2.8-2.8v-19.3c0-1.6,1.3-2.8,2.8-2.8H316c1.6,0,2.8,1.3,2.8,2.8v19.3
	C318.8,407.2,317.5,408.5,316,408.5z"/>
<g>
	<path class="st1" d="M313,390.2h-3.4l-0.8-1.7h-5.1l-0.8,1.7h-3.4c-0.9,0-1.7,0.8-1.7,1.7v8.4c0,0.9,0.8,1.7,1.7,1.7H313
		c0.9,0,1.7-0.8,1.7-1.7v-8.4C314.7,390.9,314,390.2,313,390.2z M306.3,400.3c-2.3,0-4.2-1.9-4.2-4.2s1.9-4.2,4.2-4.2
		s4.2,1.9,4.2,4.2S308.6,400.3,306.3,400.3z"/>
	<path class="st1" d="M306.3,393.5c-1.4,0-2.5,1.1-2.5,2.5c0,1.4,1.1,2.5,2.5,2.5s2.5-1.1,2.5-2.5S307.7,393.5,306.3,393.5z
		 M306.3,396.9c-0.5,0-0.8-0.4-0.8-0.8s0.4-0.8,0.8-0.8c0.5,0,0.8,0.4,0.8,0.8S306.8,396.9,306.3,396.9z"/>
</g>
</svg>
