<?xml version="1.0" encoding="utf-8"?>
<!-- Generator: Adobe Illustrator 19.0.0, SVG Export Plug-In . SVG Version: 6.00 Build 0)  -->
<svg version="1.1" id="Layer_1" xmlns="http://www.w3.org/2000/svg" xmlns:xlink="http://www.w3.org/1999/xlink" x="0px" y="0px"
	 viewBox="0 0 612 792" style="enable-background:new 0 0 612 792;" xml:space="preserve">
<style type="text/css">
	.st0{fill:#00A8AA;}
	.st1{fill:#FFFFFF;}
</style>
<path id="XMLID_6_" class="st0" d="M311.6,435h-19.3c-1.6,0-2.8-1.3-2.8-2.8v-19.3c0-1.6,1.3-2.8,2.8-2.8h19.3
	c1.6,0,2.8,1.3,2.8,2.8v19.3C314.4,433.7,313.2,435,311.6,435z"/>
<g id="XMLID_2_">
	<path id="XMLID_5_" class="st1" d="M301.2,425.9C301.2,425.9,301.2,425.9,301.2,425.9c-0.1,0.1-0.1,0.1-0.1,0.1l-1.1,1.3
		c-0.6,0.6-1.5,0.7-2.2,0l0,0c-0.7-0.6-0.7-1.5-0.2-2.2l1.1-1.3c0,0,0,0,0,0c0,0,0,0,0.1-0.1l2-2.2c-1.3-0.5-2.8-0.3-3.7,0.7
		l-1.3,1.5c-1.2,1.4-1,3.6,0.6,5l0,0c1.6,1.4,3.8,1.5,5.1,0.2l1.3-1.5c0.9-1,1-2.5,0.4-3.8L301.2,425.9z"/>
	<path id="XMLID_4_" class="st1" d="M307.8,416.3c-1.6-1.4-3.8-1.5-5.1-0.1l-1.3,1.5c-0.9,1-1,2.5-0.4,3.8l2.1-2.3c0,0,0,0,0,0
		c0,0,0,0,0,0l1.1-1.3c0.6-0.6,1.5-0.7,2.2,0c0.7,0.6,0.7,1.6,0.1,2.2l-1.1,1.2c0,0,0,0,0,0l-2.1,2.3c1.3,0.5,2.8,0.3,3.7-0.7
		l1.3-1.5C309.7,420,309.4,417.7,307.8,416.3z"/>
	<path id="XMLID_3_" class="st1" d="M299.2,425.6L299.2,425.6c0.5,0.5,1.2,0.4,1.7,0l4.3-4.7c0.4-0.5,0.4-1.2-0.1-1.6l-0.1-0.1
		c-0.5-0.4-1.2-0.4-1.6,0.1l-4.3,4.7C298.7,424.5,298.8,425.2,299.2,425.6z"/>
</g>
</svg>
