<?xml version="1.0" encoding="utf-8"?>
<!-- Generator: Adobe Illustrator 19.0.0, SVG Export Plug-In . SVG Version: 6.00 Build 0)  -->
<svg version="1.1" id="Layer_1" xmlns="http://www.w3.org/2000/svg" xmlns:xlink="http://www.w3.org/1999/xlink" x="0px" y="0px"
	 viewBox="0 0 612 792" style="enable-background:new 0 0 612 792;" xml:space="preserve">
<style type="text/css">
	.st0{fill:#00A8AA;}
</style>
<g id="XMLID_2_" transform="translate(0,-952.36218)">
	<path id="XMLID_3_" class="st0" d="M289,1362.9c-0.1,0-0.1,0-0.2,0c-0.2,0-0.4,0.2-0.6,0.4c0,0,0,0,0,0c0,0-0.1,0.1-0.1,0.1
		c0,0,0,0,0,0c0,0,0,0.1-0.1,0.1c0,0.1,0,0.1,0,0.2c0,0.1,0,0.2,0.1,0.3c-0.8,0.1-1.4,0.4-1.9,0.9c-0.1,0.1-0.2,0.2-0.3,0.4
		c-0.2,0.3-0.3,0.6-0.4,1c0,0,0,0,0,0c0,0.2-0.1,0.3-0.1,0.5c0,0,0,0,0,0.1c0,0.3,0,0.6,0,0.9c0,0,0,0,0,0c0,0.3-0.1,0.6-0.1,0.9
		c0,0,0,0,0,0c-0.1,0.6-0.3,1.2-0.6,1.8c-0.1,0.2-0.1,0.3-0.2,0.5c0,0.1-0.1,0.1-0.1,0.2c0,0.1-0.1,0.1-0.1,0.2c0,0,0,0,0,0
		c-0.2,0.3-0.3,0.5-0.5,0.8c0,0,0,0,0,0c-0.4,0.5-0.8,0.9-1.3,1.3c0,0.1,0,0.1,0,0.2c0,0,0,0,0,0c0,0.1,0,0.1,0.1,0.2c0,0,0,0,0,0
		c0,0.1,0.1,0.1,0.1,0.1c0,0.1,0.1,0.1,0.1,0.2c0.2,0.2,0.4,0.3,0.7,0.3h1.9h1.6h0.2c0,0.1,0,0.1,0,0.2c0,0,0,0.1,0,0.1c0,0,0,0,0,0
		c0,0,0,0,0,0.1c0,0.1,0,0.1,0.1,0.2c0,0,0,0,0,0.1c0.1,0.3,0.3,0.6,0.6,0.8c0,0,0,0,0.1,0c0.1,0.1,0.2,0.1,0.2,0.1c0,0,0,0,0.1,0
		c0.1,0,0.2,0.1,0.3,0.1c0.1,0,0.2,0.1,0.4,0.1c0.8,0,1.4-0.5,1.7-1.2c0-0.1,0.1-0.2,0.1-0.3c0-0.1,0-0.2,0-0.3h0.2h3.5
		c0.3,0,0.5-0.1,0.7-0.3c0.2-0.2,0.3-0.4,0.3-0.7c-1-0.8-1.7-1.8-2.2-3c-0.5-1.2-0.8-2.5-0.8-3.8c0-0.8-0.2-1.5-0.7-2
		c-0.5-0.5-1.1-0.8-1.9-0.9c0-0.1,0.1-0.2,0.1-0.3C289.9,1363.3,289.5,1362.9,289,1362.9L289,1362.9z"/>
</g>
</svg>
