<?xml version="1.0" encoding="utf-8"?>
<!-- Generator: Adobe Illustrator 19.0.0, SVG Export Plug-In . SVG Version: 6.00 Build 0)  -->
<svg version="1.1" id="Layer_1" xmlns="http://www.w3.org/2000/svg" xmlns:xlink="http://www.w3.org/1999/xlink" x="0px" y="0px"
	 viewBox="0 0 612 792" style="enable-background:new 0 0 612 792;" xml:space="preserve">
<style type="text/css">
	.st0{fill:#00A8AA;}
</style>
<g id="XMLID_2_">
	<path id="XMLID_6_" class="st0" d="M306.6,475.5c1.3,0,2.4-1.1,2.4-2.4c0-1.3-1.1-2.4-2.4-2.4c-1.3,0-2.4,1.1-2.4,2.4
		C304.2,474.4,305.3,475.5,306.6,475.5z"/>
	<path id="XMLID_3_" class="st0" d="M300,475.7l1,1.7c0.2,0.3,0.6,0.5,0.9,0.3l0.9-0.4c0.6,0.5,1.2,0.9,2,1.1l0.1,1
		c0,0.4,0.3,0.7,0.7,0.7h2c0.4,0,0.7-0.3,0.7-0.7l0.1-1c0.7-0.3,1.4-0.6,2-1.1l0.9,0.4c0.3,0.2,0.8,0,0.9-0.3l1-1.7
		c0.2-0.3,0.1-0.7-0.2-1l-0.8-0.6c0.1-0.4,0.1-0.8,0.1-1.1c0-0.4,0-0.8-0.1-1.1l0.8-0.6c0.3-0.2,0.4-0.6,0.2-1l-1-1.7
		c-0.2-0.3-0.6-0.5-0.9-0.3l-0.9,0.4c-0.6-0.5-1.2-0.9-2-1.1l-0.1-1c0-0.4-0.4-0.7-0.7-0.7h-2c-0.4,0-0.7,0.3-0.7,0.7l-0.1,1
		c-0.7,0.3-1.4,0.6-2,1.1l-0.9-0.4c-0.3-0.2-0.8,0-0.9,0.3l-1,1.7c-0.2,0.3-0.1,0.7,0.2,1l0.8,0.6c-0.1,0.4-0.1,0.8-0.1,1.1
		c0,0.4,0,0.8,0.1,1.1l-0.8,0.6C299.9,475,299.8,475.4,300,475.7z M306.6,469.2c2.1,0,3.8,1.7,3.8,3.8c0,2.1-1.7,3.8-3.8,3.8
		c-2.1,0-3.8-1.7-3.8-3.8C302.8,470.9,304.5,469.2,306.6,469.2z"/>
</g>
</svg>
